<svg xmlns="http://www.w3.org/2000/svg" xmlns:xlink="http://www.w3.org/1999/xlink" viewBox="0 0 410.27 87.83"><defs><style>.a,.e,.g,.h{fill-rule:evenodd;}.a{fill:url(#a);}.b{fill:url(#b);}.c{fill:url(#c);}.d{fill:url(#d);}.e,.f{fill:#808285;}.g{fill:url(#e);}.h{fill:url(#f);}.i{fill:url(#g);}</style><linearGradient id="a" x1="448.09" y1="254.71" x2="448.09" y2="340.58" gradientUnits="userSpaceOnUse"><stop offset="0" stop-color="#c7c8ca"/><stop offset="0.24" stop-color="#a7a9ac"/><stop offset="0.46" stop-color="#636466"/><stop offset="0.59" stop-color="#58595b"/><stop offset="0.8" stop-color="#939598"/><stop offset="1" stop-color="#afb1b4"/></linearGradient><linearGradient id="b" x1="599.42" y1="254.71" x2="599.42" y2="340.57" xlink:href="#a"/><linearGradient id="c" x1="365.71" y1="253.72" x2="365.71" y2="341.56" xlink:href="#a"/><linearGradient id="d" x1="269.02" y1="254.72" x2="269.02" y2="340.58" xlink:href="#a"/><linearGradient id="e" x1="538.04" y1="282.65" x2="538.04" y2="312.69" gradientUnits="userSpaceOnUse"><stop offset="0.37" stop-color="#ea2227"/><stop offset="0.53" stop-color="#941b1e"/><stop offset="0.96" stop-color="#a11e22"/></linearGradient><linearGradient id="f" x1="571" y1="254.71" x2="571" y2="340.57" gradientUnits="userSpaceOnUse"><stop offset="0" stop-color="#1a1a1a"/><stop offset="0.24" stop-color="#1f1f1f"/><stop offset="0.44" stop-color="#141414"/><stop offset="0.52"/><stop offset="0.8" stop-color="#0f0f0f"/><stop offset="1" stop-color="#1a1a1a"/></linearGradient><linearGradient id="g" x1="524.83" y1="254.71" x2="524.83" y2="340.57" xlink:href="#f"/></defs><title>logo-mover-uz-header</title><path class="a" d="M460.42,331.93a13.12,13.12,0,0,1-24.62.14h0l-28.18-77.36h14.5a5.09,5.09,0,0,1,4.8,3.4l0,.06,19.16,58.65a2.14,2.14,0,0,0,4,0h0l19.15-58.64,0-.06a5.09,5.09,0,0,1,4.8-3.4h14.49l-28.13,77.22Z" transform="translate(-226.01 -253.72)"/><path class="b" d="M596.9,306.16H562.56V289.23H608a8.5,8.5,0,0,0,3.32-.63,9,9,0,0,0,2.86-2h0a8.84,8.84,0,0,0,2-2.85,8.47,8.47,0,0,0,.63-3.34,8.28,8.28,0,0,0-.64-3.29,9.36,9.36,0,0,0-2-2.89h0a9.52,9.52,0,0,0-2.91-2h0a8.11,8.11,0,0,0-3.24-.64H562.56V254.71H608a24.9,24.9,0,0,1,9.78,1.93,25.92,25.92,0,0,1,8.31,5.7h0a26,26,0,0,1,5.7,8.31,25.72,25.72,0,0,1,.36,18.62,25.94,25.94,0,0,1-4.65,7.78,26.24,26.24,0,0,1-6.9,5.79,24.35,24.35,0,0,1-4.95,2.15l20.61,35.57H616.74L596.9,306.16Z" transform="translate(-226.01 -253.72)"/><path class="c" d="M409.72,297.67a42.91,42.91,0,0,1-3.26,16.76,44.38,44.38,0,0,1-9.74,14.23h0a44.46,44.46,0,0,1-14.24,9.64,45.08,45.08,0,0,1-33.53,0,44.11,44.11,0,0,1-14.22-9.64h0A44.41,44.41,0,0,1,325,314.43,44.48,44.48,0,0,1,325,281a46.62,46.62,0,0,1,24-24,44.67,44.67,0,0,1,33.52,0,46.65,46.65,0,0,1,24,24,42.66,42.66,0,0,1,3.27,16.72Zm-16.93,0a26.54,26.54,0,0,0-2-10.33A28.87,28.87,0,0,0,376,272.58a27.88,27.88,0,0,0-20.66,0,28.87,28.87,0,0,0-14.76,14.76,27.88,27.88,0,0,0,0,20.66,28.86,28.86,0,0,0,14.76,14.76,27.88,27.88,0,0,0,20.66,0A28.85,28.85,0,0,0,390.8,308a26.54,26.54,0,0,0,2-10.33Z" transform="translate(-226.01 -253.72)"/><path class="d" d="M242.94,292.28v48.3H226V258.42h0v-.08a3.62,3.62,0,0,1,2.61-3.48l-.06-.14H243a5.1,5.1,0,0,1,4.8,2.93l0,0L267,308.24a2.28,2.28,0,0,0,4,0h0l19.15-50.54,0,0a5.1,5.1,0,0,1,4.8-2.93H309.5l-.06.14a3.62,3.62,0,0,1,2.61,3.48v82.24H295.11V288.75l-13.74,32.51h0c-1.82,4.35-6.66,7.46-12.34,7.46s-10.42-3.05-12.29-7.34h0l-13.79-32.63v3.53Z" transform="translate(-226.01 -253.72)"/><path class="e" d="M474.07,254.71h0a5.09,5.09,0,0,0-4.8,3.4l0,.06-19.15,58.64h0a2.14,2.14,0,0,1-4,0l-19.16-58.65,0-.06a5.09,5.09,0,0,0-4.8-3.4h-14.5l28.18,77.36h0a13.12,13.12,0,0,0,24.62-.14h0l28.13-77.22Zm-15.53,76.53a11.12,11.12,0,0,1-20.85.14l-27.19-74.66h11.62a3.09,3.09,0,0,1,2.91,2.07l19.18,58.73a4.16,4.16,0,0,0,7.81-.09l19.16-58.66a3.07,3.07,0,0,1,2.9-2.06h11.62Z" transform="translate(-226.01 -253.72)"/><path class="f" d="M616.74,340.57h19.54L615.67,305a24.35,24.35,0,0,0,4.95-2.15,26.24,26.24,0,0,0,6.9-5.79,25.94,25.94,0,0,0,4.65-7.78,25.72,25.72,0,0,0-.36-18.62,26,26,0,0,0-5.7-8.31h0a25.92,25.92,0,0,0-8.31-5.7,24.9,24.9,0,0,0-9.78-1.93H562.56v16.87H608a8.11,8.11,0,0,1,3.24.64h0a9.52,9.52,0,0,1,2.91,2h0a9.36,9.36,0,0,1,2,2.89,8.28,8.28,0,0,1,.64,3.29,8.47,8.47,0,0,1-.63,3.34,8.84,8.84,0,0,1-2,2.85h0a9,9,0,0,1-2.86,2,8.5,8.5,0,0,1-3.32.63H562.56v16.93H596.9Zm-52.17-49.33H608a10.51,10.51,0,0,0,4.1-.79,10.92,10.92,0,0,0,3.36-2.28l.14-.13a10.88,10.88,0,0,0,2.41-3.49,10.58,10.58,0,0,0,.79-4.12,10.36,10.36,0,0,0-.8-4.08,11.14,11.14,0,0,0-2.31-3.39l-.13-.14a11.55,11.55,0,0,0-3.33-2.35l-.19-.1a10.08,10.08,0,0,0-4-.8H564.57V256.72H608a22.94,22.94,0,0,1,9,1.77,25.57,25.57,0,0,1,13,13,23.68,23.68,0,0,1,.33,17.13,24,24,0,0,1-4.29,7.18,24.37,24.37,0,0,1-6.37,5.35,22.48,22.48,0,0,1-4.54,2,2,2,0,0,0-1.15,2.93l18.87,32.55H617.9l-19.25-33.4a2,2,0,0,0-1.75-1H564.57Z" transform="translate(-226.01 -253.72)"/><path class="f" d="M386.23,277.16a29.4,29.4,0,0,0-9.41-6.43,30,30,0,0,0-22.21,0,30.88,30.88,0,0,0-15.84,15.84,29.9,29.9,0,0,0,0,22.21,30.86,30.86,0,0,0,15.84,15.84,29.87,29.87,0,0,0,22.21,0,30.86,30.86,0,0,0,15.84-15.84,29.87,29.87,0,0,0,0-22.21A29.34,29.34,0,0,0,386.23,277.16ZM390.8,308A28.85,28.85,0,0,1,376,322.76a27.88,27.88,0,0,1-20.66,0A28.86,28.86,0,0,1,340.62,308a27.88,27.88,0,0,1,0-20.66,28.87,28.87,0,0,1,14.76-14.76,27.88,27.88,0,0,1,20.66,0,28.87,28.87,0,0,1,14.76,14.76,27.89,27.89,0,0,1,0,20.66Z" transform="translate(-226.01 -253.72)"/><path class="f" d="M409.72,297.67A42.66,42.66,0,0,0,406.45,281a46.65,46.65,0,0,0-24-24A44.67,44.67,0,0,0,349,257a46.62,46.62,0,0,0-24,24,44.48,44.48,0,0,0,0,33.48,44.41,44.41,0,0,0,9.73,14.23h0a44.11,44.11,0,0,0,14.22,9.64,45.08,45.08,0,0,0,33.53,0,44.46,44.46,0,0,0,14.24-9.64h0a44.38,44.38,0,0,0,9.74-14.23A42.91,42.91,0,0,0,409.72,297.67ZM395.3,327.25a42.64,42.64,0,0,1-13.6,9.21,43,43,0,0,1-32,0,44.19,44.19,0,0,1-22.88-22.81,42.46,42.46,0,0,1,0-31.92,44.65,44.65,0,0,1,22.89-22.89,42.64,42.64,0,0,1,32,0,44.64,44.64,0,0,1,22.89,22.89,42.49,42.49,0,0,1,0,31.92A42.62,42.62,0,0,1,395.3,327.25Z" transform="translate(-226.01 -253.72)"/><path class="f" d="M295.11,339.22v1.36H312V258.34a3.62,3.62,0,0,0-2.61-3.48l.06-.14H295a5.1,5.1,0,0,0-4.8,2.93l0,0L271,308.24h0a2.28,2.28,0,0,1-4,0L247.86,257.7l0,0a5.1,5.1,0,0,0-4.8-2.93H228.55l.06.14a3.62,3.62,0,0,0-2.61,3.48v82.24h16.93V288.75l13.79,32.63h0c1.86,4.29,6.66,7.34,12.29,7.34s10.51-3.11,12.34-7.46h0l13.74-32.51v50.47ZM293.26,288l-13.75,32.51c-1.56,3.73-5.77,6.23-10.48,6.23s-8.85-2.47-10.44-6.13l-.06-.13L244.79,288a2,2,0,0,0-3.86.78v49.82H228V258.34a1.63,1.63,0,0,1,1.16-1.55l.18-.06H243a3.15,3.15,0,0,1,2.94,1.68L265.17,309a4.28,4.28,0,0,0,7.74-.1l19.15-50.54a3.15,3.15,0,0,1,2.94-1.68h13.68l.19.06a1.66,1.66,0,0,1,1.16,1.65v80.13H297.12V288.75a2,2,0,0,0-3.86-.78Z" transform="translate(-226.01 -253.72)"/><path class="g" d="M550.39,299.71h0l-.14.08-22.29,12.55h0a2.1,2.1,0,0,1-1.12.33,2.29,2.29,0,0,1-2.22-2.36v-.17h0V285a2.29,2.29,0,0,1,2.22-2.36,2.1,2.1,0,0,1,1.08.3h0l22.55,12.69h0a2.45,2.45,0,0,1-.06,4.05Z" transform="translate(-226.01 -253.72)"/><path class="h" d="M579.43,335.47h0a5.09,5.09,0,0,1-5.07,5.1H562.56V254.71H574.4a5.09,5.09,0,0,1,5,5.09v0h0v75.62Z" transform="translate(-226.01 -253.72)"/><path class="i" d="M496.64,335.52V259.95h0v-.14a5.09,5.09,0,0,1,5.09-5.09H553v16.87H515.63a2.14,2.14,0,0,0-2.11,2.14v0h0v47.86h0a2.14,2.14,0,0,0,2.14,2.13H553v16.82H501.74a5.09,5.09,0,0,1-5.09-5Z" transform="translate(-226.01 -253.72)"/></svg>